<?xml version="1.0" encoding="utf-8" standalone="no"?>
<!DOCTYPE svg PUBLIC "-//W3C//DTD SVG 1.1//EN"
  "http://www.w3.org/Graphics/SVG/1.1/DTD/svg11.dtd">
<svg xmlns:xlink="http://www.w3.org/1999/xlink" width="1152pt" height="648pt" viewBox="0 0 1152 648" xmlns="http://www.w3.org/2000/svg" version="1.1">
 <metadata>
  <rdf:RDF xmlns:dc="http://purl.org/dc/elements/1.1/" xmlns:cc="http://creativecommons.org/ns#" xmlns:rdf="http://www.w3.org/1999/02/22-rdf-syntax-ns#">
   <cc:Work>
    <dc:type rdf:resource="http://purl.org/dc/dcmitype/StillImage"/>
    <dc:date>2026-01-26T17:48:52.375085</dc:date>
    <dc:format>image/svg+xml</dc:format>
    <dc:creator>
     <cc:Agent>
      <dc:title>Matplotlib v3.10.3, https://matplotlib.org/</dc:title>
     </cc:Agent>
    </dc:creator>
   </cc:Work>
  </rdf:RDF>
 </metadata>
 <defs>
  <style type="text/css">*{stroke-linejoin: round; stroke-linecap: butt}</style>
 </defs>
 <g id="figure_1">
  <g id="patch_1">
   <path d="M 0 648 
L 1152 648 
L 1152 0 
L 0 0 
z
" style="fill: #ffffff"/>
  </g>
  <g id="axes_1">
   <g id="patch_2">
    <path d="M 144 576.72 
L 1036.8 576.72 
L 1036.8 77.76 
L 144 77.76 
z
" style="fill: #ffffff"/>
   </g>
   <g id="matplotlib.axis_1">
    <g id="xtick_1">
     <g id="line2d_1">
      <path d="M 184.581818 576.72 
L 184.581818 77.76 
" clip-path="url(#pcbe251ee3b)" style="fill: none; stroke: #b0b0b0; stroke-width: 0.8; stroke-linecap: square"/>
     </g>
     <g id="line2d_2">
      <defs>
       <path id="m8c63c1960a" d="M 0 0 
L 0 3.5 
" style="stroke: #000000; stroke-width: 0.8"/>
      </defs>
      <g>
       <use xlink:href="#m8c63c1960a" x="184.581818" y="576.72" style="stroke: #000000; stroke-width: 0.8"/>
      </g>
     </g>
     <g id="text_1">
      <!-- $\mathdefault{10^{0}}$ -->
      <g transform="translate(163.461818 601.95625) scale(0.24 -0.24)">
       <defs>
        <path id="DejaVuSerif-31" d="M 909 0 
L 909 331 
L 1722 331 
L 1722 4213 
L 781 3603 
L 781 4013 
L 1919 4750 
L 2350 4750 
L 2350 331 
L 3163 331 
L 3163 0 
L 909 0 
z
" transform="scale(0.015625)"/>
        <path id="DejaVuSerif-30" d="M 2034 219 
Q 2513 219 2750 744 
Q 2988 1269 2988 2328 
Q 2988 3391 2750 3916 
Q 2513 4441 2034 4441 
Q 1556 4441 1318 3916 
Q 1081 3391 1081 2328 
Q 1081 1269 1318 744 
Q 1556 219 2034 219 
z
M 2034 -91 
Q 1275 -91 848 546 
Q 422 1184 422 2328 
Q 422 3475 848 4112 
Q 1275 4750 2034 4750 
Q 2797 4750 3222 4112 
Q 3647 3475 3647 2328 
Q 3647 1184 3222 546 
Q 2797 -91 2034 -91 
z
" transform="scale(0.015625)"/>
       </defs>
       <use xlink:href="#DejaVuSerif-31" transform="translate(0 0.7125)"/>
       <use xlink:href="#DejaVuSerif-30" transform="translate(63.623047 0.7125)"/>
       <use xlink:href="#DejaVuSerif-30" transform="translate(128.154453 37.046875) scale(0.7)"/>
      </g>
     </g>
    </g>
    <g id="xtick_2">
     <g id="line2d_3">
      <path d="M 326.999898 576.72 
L 326.999898 77.76 
" clip-path="url(#pcbe251ee3b)" style="fill: none; stroke: #b0b0b0; stroke-width: 0.8; stroke-linecap: square"/>
     </g>
     <g id="line2d_4">
      <g>
       <use xlink:href="#m8c63c1960a" x="326.999898" y="576.72" style="stroke: #000000; stroke-width: 0.8"/>
      </g>
     </g>
     <g id="text_2">
      <!-- $\mathdefault{10^{1}}$ -->
      <g transform="translate(305.879898 601.95625) scale(0.24 -0.24)">
       <use xlink:href="#DejaVuSerif-31" transform="translate(0 0.7125)"/>
       <use xlink:href="#DejaVuSerif-30" transform="translate(63.623047 0.7125)"/>
       <use xlink:href="#DejaVuSerif-31" transform="translate(128.154453 37.046875) scale(0.7)"/>
      </g>
     </g>
    </g>
    <g id="xtick_3">
     <g id="line2d_5">
      <path d="M 469.417977 576.72 
L 469.417977 77.76 
" clip-path="url(#pcbe251ee3b)" style="fill: none; stroke: #b0b0b0; stroke-width: 0.8; stroke-linecap: square"/>
     </g>
     <g id="line2d_6">
      <g>
       <use xlink:href="#m8c63c1960a" x="469.417977" y="576.72" style="stroke: #000000; stroke-width: 0.8"/>
      </g>
     </g>
     <g id="text_3">
      <!-- $\mathdefault{10^{2}}$ -->
      <g transform="translate(448.297977 601.95625) scale(0.24 -0.24)">
       <defs>
        <path id="DejaVuSerif-32" d="M 819 3553 
L 469 3553 
L 469 4384 
Q 803 4563 1142 4656 
Q 1481 4750 1806 4750 
Q 2534 4750 2956 4397 
Q 3378 4044 3378 3438 
Q 3378 2753 2422 1800 
Q 2347 1728 2309 1691 
L 1131 513 
L 3078 513 
L 3078 1088 
L 3444 1088 
L 3444 0 
L 434 0 
L 434 341 
L 1850 1753 
Q 2319 2222 2519 2614 
Q 2719 3006 2719 3438 
Q 2719 3909 2473 4175 
Q 2228 4441 1797 4441 
Q 1350 4441 1106 4219 
Q 863 3997 819 3553 
z
" transform="scale(0.015625)"/>
       </defs>
       <use xlink:href="#DejaVuSerif-31" transform="translate(0 0.7125)"/>
       <use xlink:href="#DejaVuSerif-30" transform="translate(63.623047 0.7125)"/>
       <use xlink:href="#DejaVuSerif-32" transform="translate(128.154453 37.046875) scale(0.7)"/>
      </g>
     </g>
    </g>
    <g id="xtick_4">
     <g id="line2d_7">
      <path d="M 611.836057 576.72 
L 611.836057 77.76 
" clip-path="url(#pcbe251ee3b)" style="fill: none; stroke: #b0b0b0; stroke-width: 0.8; stroke-linecap: square"/>
     </g>
     <g id="line2d_8">
      <g>
       <use xlink:href="#m8c63c1960a" x="611.836057" y="576.72" style="stroke: #000000; stroke-width: 0.8"/>
      </g>
     </g>
     <g id="text_4">
      <!-- $\mathdefault{10^{3}}$ -->
      <g transform="translate(590.716057 601.95625) scale(0.24 -0.24)">
       <defs>
        <path id="DejaVuSerif-33" d="M 622 4469 
Q 988 4606 1323 4678 
Q 1659 4750 1953 4750 
Q 2638 4750 3022 4454 
Q 3406 4159 3406 3634 
Q 3406 3213 3140 2930 
Q 2875 2647 2388 2547 
Q 2963 2466 3280 2130 
Q 3597 1794 3597 1259 
Q 3597 606 3158 257 
Q 2719 -91 1894 -91 
Q 1528 -91 1179 -12 
Q 831 66 488 225 
L 488 1131 
L 838 1131 
Q 869 681 1141 450 
Q 1413 219 1906 219 
Q 2384 219 2661 495 
Q 2938 772 2938 1253 
Q 2938 1803 2653 2086 
Q 2369 2369 1819 2369 
L 1522 2369 
L 1522 2688 
L 1678 2688 
Q 2225 2688 2498 2914 
Q 2772 3141 2772 3597 
Q 2772 4006 2547 4223 
Q 2322 4441 1900 4441 
Q 1478 4441 1245 4241 
Q 1013 4041 972 3647 
L 622 3647 
L 622 4469 
z
" transform="scale(0.015625)"/>
       </defs>
       <use xlink:href="#DejaVuSerif-31" transform="translate(0 0.7125)"/>
       <use xlink:href="#DejaVuSerif-30" transform="translate(63.623047 0.7125)"/>
       <use xlink:href="#DejaVuSerif-33" transform="translate(128.154453 37.046875) scale(0.7)"/>
      </g>
     </g>
    </g>
    <g id="xtick_5">
     <g id="line2d_9">
      <path d="M 754.254137 576.72 
L 754.254137 77.76 
" clip-path="url(#pcbe251ee3b)" style="fill: none; stroke: #b0b0b0; stroke-width: 0.8; stroke-linecap: square"/>
     </g>
     <g id="line2d_10">
      <g>
       <use xlink:href="#m8c63c1960a" x="754.254137" y="576.72" style="stroke: #000000; stroke-width: 0.8"/>
      </g>
     </g>
     <g id="text_5">
      <!-- $\mathdefault{10^{4}}$ -->
      <g transform="translate(733.134137 601.95625) scale(0.24 -0.24)">
       <defs>
        <path id="DejaVuSerif-34" d="M 2234 1581 
L 2234 4063 
L 641 1581 
L 2234 1581 
z
M 3609 0 
L 1484 0 
L 1484 331 
L 2234 331 
L 2234 1247 
L 197 1247 
L 197 1588 
L 2241 4750 
L 2859 4750 
L 2859 1581 
L 3750 1581 
L 3750 1247 
L 2859 1247 
L 2859 331 
L 3609 331 
L 3609 0 
z
" transform="scale(0.015625)"/>
       </defs>
       <use xlink:href="#DejaVuSerif-31" transform="translate(0 0.7125)"/>
       <use xlink:href="#DejaVuSerif-30" transform="translate(63.623047 0.7125)"/>
       <use xlink:href="#DejaVuSerif-34" transform="translate(128.154453 37.046875) scale(0.7)"/>
      </g>
     </g>
    </g>
    <g id="xtick_6">
     <g id="line2d_11">
      <path d="M 896.672216 576.72 
L 896.672216 77.76 
" clip-path="url(#pcbe251ee3b)" style="fill: none; stroke: #b0b0b0; stroke-width: 0.8; stroke-linecap: square"/>
     </g>
     <g id="line2d_12">
      <g>
       <use xlink:href="#m8c63c1960a" x="896.672216" y="576.72" style="stroke: #000000; stroke-width: 0.8"/>
      </g>
     </g>
     <g id="text_6">
      <!-- $\mathdefault{10^{5}}$ -->
      <g transform="translate(875.552216 601.95625) scale(0.24 -0.24)">
       <defs>
        <path id="DejaVuSerif-35" d="M 3219 4666 
L 3219 4153 
L 1081 4153 
L 1081 2816 
Q 1244 2928 1461 2984 
Q 1678 3041 1947 3041 
Q 2703 3041 3140 2622 
Q 3578 2203 3578 1478 
Q 3578 738 3136 323 
Q 2694 -91 1894 -91 
Q 1572 -91 1234 -12 
Q 897 66 544 225 
L 544 1131 
L 897 1131 
Q 925 688 1179 453 
Q 1434 219 1894 219 
Q 2388 219 2653 544 
Q 2919 869 2919 1478 
Q 2919 2084 2655 2407 
Q 2391 2731 1894 2731 
Q 1613 2731 1398 2631 
Q 1184 2531 1019 2322 
L 750 2322 
L 750 4666 
L 3219 4666 
z
" transform="scale(0.015625)"/>
       </defs>
       <use xlink:href="#DejaVuSerif-31" transform="translate(0 0.63125)"/>
       <use xlink:href="#DejaVuSerif-30" transform="translate(63.623047 0.63125)"/>
       <use xlink:href="#DejaVuSerif-35" transform="translate(128.154453 36.965625) scale(0.7)"/>
      </g>
     </g>
    </g>
    <g id="xtick_7">
     <g id="line2d_13">
      <defs>
       <path id="m7fa77acd30" d="M 0 0 
L 0 2 
" style="stroke: #000000; stroke-width: 0.6"/>
      </defs>
      <g>
       <use xlink:href="#m7fa77acd30" x="152.986545" y="576.72" style="stroke: #000000; stroke-width: 0.6"/>
      </g>
     </g>
    </g>
    <g id="xtick_8">
     <g id="line2d_14">
      <g>
       <use xlink:href="#m7fa77acd30" x="162.520979" y="576.72" style="stroke: #000000; stroke-width: 0.6"/>
      </g>
     </g>
    </g>
    <g id="xtick_9">
     <g id="line2d_15">
      <g>
       <use xlink:href="#m7fa77acd30" x="170.78008" y="576.72" style="stroke: #000000; stroke-width: 0.6"/>
      </g>
     </g>
    </g>
    <g id="xtick_10">
     <g id="line2d_16">
      <g>
       <use xlink:href="#m7fa77acd30" x="178.065124" y="576.72" style="stroke: #000000; stroke-width: 0.6"/>
      </g>
     </g>
    </g>
    <g id="xtick_11">
     <g id="line2d_17">
      <g>
       <use xlink:href="#m7fa77acd30" x="227.453932" y="576.72" style="stroke: #000000; stroke-width: 0.6"/>
      </g>
     </g>
    </g>
    <g id="xtick_12">
     <g id="line2d_18">
      <g>
       <use xlink:href="#m7fa77acd30" x="252.532511" y="576.72" style="stroke: #000000; stroke-width: 0.6"/>
      </g>
     </g>
    </g>
    <g id="xtick_13">
     <g id="line2d_19">
      <g>
       <use xlink:href="#m7fa77acd30" x="270.326046" y="576.72" style="stroke: #000000; stroke-width: 0.6"/>
      </g>
     </g>
    </g>
    <g id="xtick_14">
     <g id="line2d_20">
      <g>
       <use xlink:href="#m7fa77acd30" x="284.127784" y="576.72" style="stroke: #000000; stroke-width: 0.6"/>
      </g>
     </g>
    </g>
    <g id="xtick_15">
     <g id="line2d_21">
      <g>
       <use xlink:href="#m7fa77acd30" x="295.404625" y="576.72" style="stroke: #000000; stroke-width: 0.6"/>
      </g>
     </g>
    </g>
    <g id="xtick_16">
     <g id="line2d_22">
      <g>
       <use xlink:href="#m7fa77acd30" x="304.939058" y="576.72" style="stroke: #000000; stroke-width: 0.6"/>
      </g>
     </g>
    </g>
    <g id="xtick_17">
     <g id="line2d_23">
      <g>
       <use xlink:href="#m7fa77acd30" x="313.19816" y="576.72" style="stroke: #000000; stroke-width: 0.6"/>
      </g>
     </g>
    </g>
    <g id="xtick_18">
     <g id="line2d_24">
      <g>
       <use xlink:href="#m7fa77acd30" x="320.483204" y="576.72" style="stroke: #000000; stroke-width: 0.6"/>
      </g>
     </g>
    </g>
    <g id="xtick_19">
     <g id="line2d_25">
      <g>
       <use xlink:href="#m7fa77acd30" x="369.872012" y="576.72" style="stroke: #000000; stroke-width: 0.6"/>
      </g>
     </g>
    </g>
    <g id="xtick_20">
     <g id="line2d_26">
      <g>
       <use xlink:href="#m7fa77acd30" x="394.950591" y="576.72" style="stroke: #000000; stroke-width: 0.6"/>
      </g>
     </g>
    </g>
    <g id="xtick_21">
     <g id="line2d_27">
      <g>
       <use xlink:href="#m7fa77acd30" x="412.744126" y="576.72" style="stroke: #000000; stroke-width: 0.6"/>
      </g>
     </g>
    </g>
    <g id="xtick_22">
     <g id="line2d_28">
      <g>
       <use xlink:href="#m7fa77acd30" x="426.545863" y="576.72" style="stroke: #000000; stroke-width: 0.6"/>
      </g>
     </g>
    </g>
    <g id="xtick_23">
     <g id="line2d_29">
      <g>
       <use xlink:href="#m7fa77acd30" x="437.822704" y="576.72" style="stroke: #000000; stroke-width: 0.6"/>
      </g>
     </g>
    </g>
    <g id="xtick_24">
     <g id="line2d_30">
      <g>
       <use xlink:href="#m7fa77acd30" x="447.357138" y="576.72" style="stroke: #000000; stroke-width: 0.6"/>
      </g>
     </g>
    </g>
    <g id="xtick_25">
     <g id="line2d_31">
      <g>
       <use xlink:href="#m7fa77acd30" x="455.616239" y="576.72" style="stroke: #000000; stroke-width: 0.6"/>
      </g>
     </g>
    </g>
    <g id="xtick_26">
     <g id="line2d_32">
      <g>
       <use xlink:href="#m7fa77acd30" x="462.901283" y="576.72" style="stroke: #000000; stroke-width: 0.6"/>
      </g>
     </g>
    </g>
    <g id="xtick_27">
     <g id="line2d_33">
      <g>
       <use xlink:href="#m7fa77acd30" x="512.290091" y="576.72" style="stroke: #000000; stroke-width: 0.6"/>
      </g>
     </g>
    </g>
    <g id="xtick_28">
     <g id="line2d_34">
      <g>
       <use xlink:href="#m7fa77acd30" x="537.36867" y="576.72" style="stroke: #000000; stroke-width: 0.6"/>
      </g>
     </g>
    </g>
    <g id="xtick_29">
     <g id="line2d_35">
      <g>
       <use xlink:href="#m7fa77acd30" x="555.162205" y="576.72" style="stroke: #000000; stroke-width: 0.6"/>
      </g>
     </g>
    </g>
    <g id="xtick_30">
     <g id="line2d_36">
      <g>
       <use xlink:href="#m7fa77acd30" x="568.963943" y="576.72" style="stroke: #000000; stroke-width: 0.6"/>
      </g>
     </g>
    </g>
    <g id="xtick_31">
     <g id="line2d_37">
      <g>
       <use xlink:href="#m7fa77acd30" x="580.240784" y="576.72" style="stroke: #000000; stroke-width: 0.6"/>
      </g>
     </g>
    </g>
    <g id="xtick_32">
     <g id="line2d_38">
      <g>
       <use xlink:href="#m7fa77acd30" x="589.775217" y="576.72" style="stroke: #000000; stroke-width: 0.6"/>
      </g>
     </g>
    </g>
    <g id="xtick_33">
     <g id="line2d_39">
      <g>
       <use xlink:href="#m7fa77acd30" x="598.034319" y="576.72" style="stroke: #000000; stroke-width: 0.6"/>
      </g>
     </g>
    </g>
    <g id="xtick_34">
     <g id="line2d_40">
      <g>
       <use xlink:href="#m7fa77acd30" x="605.319363" y="576.72" style="stroke: #000000; stroke-width: 0.6"/>
      </g>
     </g>
    </g>
    <g id="xtick_35">
     <g id="line2d_41">
      <g>
       <use xlink:href="#m7fa77acd30" x="654.708171" y="576.72" style="stroke: #000000; stroke-width: 0.6"/>
      </g>
     </g>
    </g>
    <g id="xtick_36">
     <g id="line2d_42">
      <g>
       <use xlink:href="#m7fa77acd30" x="679.78675" y="576.72" style="stroke: #000000; stroke-width: 0.6"/>
      </g>
     </g>
    </g>
    <g id="xtick_37">
     <g id="line2d_43">
      <g>
       <use xlink:href="#m7fa77acd30" x="697.580285" y="576.72" style="stroke: #000000; stroke-width: 0.6"/>
      </g>
     </g>
    </g>
    <g id="xtick_38">
     <g id="line2d_44">
      <g>
       <use xlink:href="#m7fa77acd30" x="711.382023" y="576.72" style="stroke: #000000; stroke-width: 0.6"/>
      </g>
     </g>
    </g>
    <g id="xtick_39">
     <g id="line2d_45">
      <g>
       <use xlink:href="#m7fa77acd30" x="722.658864" y="576.72" style="stroke: #000000; stroke-width: 0.6"/>
      </g>
     </g>
    </g>
    <g id="xtick_40">
     <g id="line2d_46">
      <g>
       <use xlink:href="#m7fa77acd30" x="732.193297" y="576.72" style="stroke: #000000; stroke-width: 0.6"/>
      </g>
     </g>
    </g>
    <g id="xtick_41">
     <g id="line2d_47">
      <g>
       <use xlink:href="#m7fa77acd30" x="740.452399" y="576.72" style="stroke: #000000; stroke-width: 0.6"/>
      </g>
     </g>
    </g>
    <g id="xtick_42">
     <g id="line2d_48">
      <g>
       <use xlink:href="#m7fa77acd30" x="747.737443" y="576.72" style="stroke: #000000; stroke-width: 0.6"/>
      </g>
     </g>
    </g>
    <g id="xtick_43">
     <g id="line2d_49">
      <g>
       <use xlink:href="#m7fa77acd30" x="797.12625" y="576.72" style="stroke: #000000; stroke-width: 0.6"/>
      </g>
     </g>
    </g>
    <g id="xtick_44">
     <g id="line2d_50">
      <g>
       <use xlink:href="#m7fa77acd30" x="822.204829" y="576.72" style="stroke: #000000; stroke-width: 0.6"/>
      </g>
     </g>
    </g>
    <g id="xtick_45">
     <g id="line2d_51">
      <g>
       <use xlink:href="#m7fa77acd30" x="839.998364" y="576.72" style="stroke: #000000; stroke-width: 0.6"/>
      </g>
     </g>
    </g>
    <g id="xtick_46">
     <g id="line2d_52">
      <g>
       <use xlink:href="#m7fa77acd30" x="853.800102" y="576.72" style="stroke: #000000; stroke-width: 0.6"/>
      </g>
     </g>
    </g>
    <g id="xtick_47">
     <g id="line2d_53">
      <g>
       <use xlink:href="#m7fa77acd30" x="865.076943" y="576.72" style="stroke: #000000; stroke-width: 0.6"/>
      </g>
     </g>
    </g>
    <g id="xtick_48">
     <g id="line2d_54">
      <g>
       <use xlink:href="#m7fa77acd30" x="874.611376" y="576.72" style="stroke: #000000; stroke-width: 0.6"/>
      </g>
     </g>
    </g>
    <g id="xtick_49">
     <g id="line2d_55">
      <g>
       <use xlink:href="#m7fa77acd30" x="882.870478" y="576.72" style="stroke: #000000; stroke-width: 0.6"/>
      </g>
     </g>
    </g>
    <g id="xtick_50">
     <g id="line2d_56">
      <g>
       <use xlink:href="#m7fa77acd30" x="890.155522" y="576.72" style="stroke: #000000; stroke-width: 0.6"/>
      </g>
     </g>
    </g>
    <g id="xtick_51">
     <g id="line2d_57">
      <g>
       <use xlink:href="#m7fa77acd30" x="939.54433" y="576.72" style="stroke: #000000; stroke-width: 0.6"/>
      </g>
     </g>
    </g>
    <g id="xtick_52">
     <g id="line2d_58">
      <g>
       <use xlink:href="#m7fa77acd30" x="964.622909" y="576.72" style="stroke: #000000; stroke-width: 0.6"/>
      </g>
     </g>
    </g>
    <g id="xtick_53">
     <g id="line2d_59">
      <g>
       <use xlink:href="#m7fa77acd30" x="982.416444" y="576.72" style="stroke: #000000; stroke-width: 0.6"/>
      </g>
     </g>
    </g>
    <g id="xtick_54">
     <g id="line2d_60">
      <g>
       <use xlink:href="#m7fa77acd30" x="996.218182" y="576.72" style="stroke: #000000; stroke-width: 0.6"/>
      </g>
     </g>
    </g>
    <g id="xtick_55">
     <g id="line2d_61">
      <g>
       <use xlink:href="#m7fa77acd30" x="1007.495023" y="576.72" style="stroke: #000000; stroke-width: 0.6"/>
      </g>
     </g>
    </g>
    <g id="xtick_56">
     <g id="line2d_62">
      <g>
       <use xlink:href="#m7fa77acd30" x="1017.029456" y="576.72" style="stroke: #000000; stroke-width: 0.6"/>
      </g>
     </g>
    </g>
    <g id="xtick_57">
     <g id="line2d_63">
      <g>
       <use xlink:href="#m7fa77acd30" x="1025.288558" y="576.72" style="stroke: #000000; stroke-width: 0.6"/>
      </g>
     </g>
    </g>
    <g id="xtick_58">
     <g id="line2d_64">
      <g>
       <use xlink:href="#m7fa77acd30" x="1032.573602" y="576.72" style="stroke: #000000; stroke-width: 0.6"/>
      </g>
     </g>
    </g>
    <g id="text_7">
     <!-- Liczba ewaluacji funkcji celu -->
     <g transform="translate(414.905625 629.18375) scale(0.24 -0.24)">
      <defs>
       <path id="DejaVuSerif-4c" d="M 353 0 
L 353 331 
L 947 331 
L 947 4331 
L 353 4331 
L 353 4666 
L 2175 4666 
L 2175 4331 
L 1581 4331 
L 1581 384 
L 3713 384 
L 3713 1166 
L 4097 1166 
L 4097 0 
L 353 0 
z
" transform="scale(0.015625)"/>
       <path id="DejaVuSerif-69" d="M 622 4353 
Q 622 4497 726 4603 
Q 831 4709 978 4709 
Q 1122 4709 1226 4603 
Q 1331 4497 1331 4353 
Q 1331 4206 1228 4103 
Q 1125 4000 978 4000 
Q 831 4000 726 4103 
Q 622 4206 622 4353 
z
M 1356 331 
L 1900 331 
L 1900 0 
L 231 0 
L 231 331 
L 781 331 
L 781 2988 
L 231 2988 
L 231 3322 
L 1356 3322 
L 1356 331 
z
" transform="scale(0.015625)"/>
       <path id="DejaVuSerif-63" d="M 3291 997 
Q 3169 466 2822 187 
Q 2475 -91 1925 -91 
Q 1200 -91 759 389 
Q 319 869 319 1663 
Q 319 2459 759 2936 
Q 1200 3413 1925 3413 
Q 2241 3413 2553 3339 
Q 2866 3266 3181 3116 
L 3181 2266 
L 2847 2266 
Q 2781 2703 2561 2903 
Q 2341 3103 1931 3103 
Q 1466 3103 1228 2742 
Q 991 2381 991 1663 
Q 991 944 1227 581 
Q 1463 219 1931 219 
Q 2303 219 2525 412 
Q 2747 606 2828 997 
L 3291 997 
z
" transform="scale(0.015625)"/>
       <path id="DejaVuSerif-7a" d="M 256 0 
L 256 269 
L 2338 2988 
L 691 2988 
L 691 2413 
L 359 2413 
L 359 3322 
L 3078 3322 
L 3078 3053 
L 997 331 
L 2803 331 
L 2803 934 
L 3138 934 
L 3138 0 
L 256 0 
z
" transform="scale(0.015625)"/>
       <path id="DejaVuSerif-62" d="M 738 331 
L 738 4531 
L 184 4531 
L 184 4863 
L 1313 4863 
L 1313 2803 
Q 1481 3116 1742 3264 
Q 2003 3413 2388 3413 
Q 3000 3413 3387 2928 
Q 3775 2444 3775 1663 
Q 3775 881 3387 395 
Q 3000 -91 2388 -91 
Q 2003 -91 1742 57 
Q 1481 206 1313 519 
L 1313 0 
L 184 0 
L 184 331 
L 738 331 
z
M 1313 1497 
Q 1313 897 1542 583 
Q 1772 269 2209 269 
Q 2650 269 2876 622 
Q 3103 975 3103 1663 
Q 3103 2353 2876 2703 
Q 2650 3053 2209 3053 
Q 1772 3053 1542 2737 
Q 1313 2422 1313 1825 
L 1313 1497 
z
" transform="scale(0.015625)"/>
       <path id="DejaVuSerif-61" d="M 2547 1044 
L 2547 1747 
L 1806 1747 
Q 1378 1747 1168 1562 
Q 959 1378 959 997 
Q 959 650 1171 447 
Q 1384 244 1747 244 
Q 2106 244 2326 466 
Q 2547 688 2547 1044 
z
M 3122 2075 
L 3122 331 
L 3634 331 
L 3634 0 
L 2547 0 
L 2547 359 
Q 2356 128 2106 18 
Q 1856 -91 1522 -91 
Q 969 -91 644 203 
Q 319 497 319 997 
Q 319 1513 691 1797 
Q 1063 2081 1741 2081 
L 2547 2081 
L 2547 2309 
Q 2547 2688 2317 2895 
Q 2088 3103 1672 3103 
Q 1328 3103 1125 2947 
Q 922 2791 872 2484 
L 575 2484 
L 575 3156 
Q 875 3284 1158 3348 
Q 1441 3413 1709 3413 
Q 2400 3413 2761 3070 
Q 3122 2728 3122 2075 
z
" transform="scale(0.015625)"/>
       <path id="DejaVuSerif-20" transform="scale(0.015625)"/>
       <path id="DejaVuSerif-65" d="M 3469 1600 
L 991 1600 
L 991 1575 
Q 991 903 1244 561 
Q 1497 219 1991 219 
Q 2369 219 2611 417 
Q 2853 616 2950 1006 
L 3413 1006 
Q 3275 459 2904 184 
Q 2534 -91 1931 -91 
Q 1203 -91 761 389 
Q 319 869 319 1663 
Q 319 2450 753 2931 
Q 1188 3413 1894 3413 
Q 2647 3413 3050 2948 
Q 3453 2484 3469 1600 
z
M 2791 1931 
Q 2772 2513 2545 2808 
Q 2319 3103 1894 3103 
Q 1497 3103 1269 2806 
Q 1041 2509 991 1931 
L 2791 1931 
z
" transform="scale(0.015625)"/>
       <path id="DejaVuSerif-77" d="M 3072 3322 
L 3922 728 
L 4672 2988 
L 4191 2988 
L 4191 3322 
L 5394 3322 
L 5394 2988 
L 5025 2988 
L 4038 0 
L 3559 0 
L 2741 2484 
L 1919 0 
L 1459 0 
L 475 2988 
L 103 2988 
L 103 3322 
L 1606 3322 
L 1606 2988 
L 1069 2988 
L 1813 728 
L 2669 3322 
L 3072 3322 
z
" transform="scale(0.015625)"/>
       <path id="DejaVuSerif-6c" d="M 1313 331 
L 1856 331 
L 1856 0 
L 184 0 
L 184 331 
L 738 331 
L 738 4531 
L 184 4531 
L 184 4863 
L 1313 4863 
L 1313 331 
z
" transform="scale(0.015625)"/>
       <path id="DejaVuSerif-75" d="M 2266 3322 
L 3341 3322 
L 3341 331 
L 3884 331 
L 3884 0 
L 2766 0 
L 2766 588 
Q 2606 256 2353 82 
Q 2100 -91 1766 -91 
Q 1213 -91 952 223 
Q 691 538 691 1209 
L 691 2988 
L 172 2988 
L 172 3322 
L 1269 3322 
L 1269 1388 
Q 1269 781 1417 556 
Q 1566 331 1947 331 
Q 2347 331 2556 625 
Q 2766 919 2766 1478 
L 2766 2988 
L 2266 2988 
L 2266 3322 
z
" transform="scale(0.015625)"/>
       <path id="DejaVuSerif-6a" d="M 641 4353 
Q 641 4497 745 4603 
Q 850 4709 997 4709 
Q 1141 4709 1245 4603 
Q 1350 4497 1350 4353 
Q 1350 4206 1248 4103 
Q 1147 4000 997 4000 
Q 850 4000 745 4103 
Q 641 4206 641 4353 
z
M 781 2988 
L 238 2988 
L 238 3322 
L 1356 3322 
L 1356 -325 
Q 1356 -838 1051 -1130 
Q 747 -1422 213 -1422 
Q -13 -1422 -217 -1370 
Q -422 -1319 -616 -1216 
L -616 -531 
L -319 -531 
Q -297 -831 -164 -972 
Q -31 -1113 225 -1113 
Q 509 -1113 645 -920 
Q 781 -728 781 -325 
L 781 2988 
z
" transform="scale(0.015625)"/>
       <path id="DejaVuSerif-66" d="M 2753 4078 
L 2450 4078 
Q 2447 4313 2317 4434 
Q 2188 4556 1941 4556 
Q 1619 4556 1487 4379 
Q 1356 4203 1356 3750 
L 1356 3322 
L 2284 3322 
L 2284 2988 
L 1356 2988 
L 1356 331 
L 2094 331 
L 2094 0 
L 231 0 
L 231 331 
L 781 331 
L 781 2988 
L 231 2988 
L 231 3322 
L 781 3322 
L 781 3738 
Q 781 4294 1070 4578 
Q 1359 4863 1919 4863 
Q 2128 4863 2337 4825 
Q 2547 4788 2753 4709 
L 2753 4078 
z
" transform="scale(0.015625)"/>
       <path id="DejaVuSerif-6e" d="M 263 0 
L 263 331 
L 781 331 
L 781 2988 
L 231 2988 
L 231 3322 
L 1356 3322 
L 1356 2731 
Q 1516 3069 1770 3241 
Q 2025 3413 2363 3413 
Q 2913 3413 3172 3097 
Q 3431 2781 3431 2113 
L 3431 331 
L 3944 331 
L 3944 0 
L 2356 0 
L 2356 331 
L 2853 331 
L 2853 1931 
Q 2853 2541 2703 2767 
Q 2553 2994 2175 2994 
Q 1775 2994 1565 2701 
Q 1356 2409 1356 1850 
L 1356 331 
L 1856 331 
L 1856 0 
L 263 0 
z
" transform="scale(0.015625)"/>
       <path id="DejaVuSerif-6b" d="M 1831 0 
L 219 0 
L 219 331 
L 738 331 
L 738 4531 
L 184 4531 
L 184 4863 
L 1313 4863 
L 1313 1697 
L 2713 2988 
L 2234 2988 
L 2234 3322 
L 3738 3322 
L 3738 2988 
L 3169 2988 
L 2181 2075 
L 3444 331 
L 3922 331 
L 3922 0 
L 2284 0 
L 2284 331 
L 2759 331 
L 1766 1697 
L 1313 1275 
L 1313 331 
L 1831 331 
L 1831 0 
z
" transform="scale(0.015625)"/>
      </defs>
      <use xlink:href="#DejaVuSerif-4c"/>
      <use xlink:href="#DejaVuSerif-69" transform="translate(66.40625 0)"/>
      <use xlink:href="#DejaVuSerif-63" transform="translate(98.388672 0)"/>
      <use xlink:href="#DejaVuSerif-7a" transform="translate(154.394531 0)"/>
      <use xlink:href="#DejaVuSerif-62" transform="translate(207.080078 0)"/>
      <use xlink:href="#DejaVuSerif-61" transform="translate(271.09375 0)"/>
      <use xlink:href="#DejaVuSerif-20" transform="translate(330.712891 0)"/>
      <use xlink:href="#DejaVuSerif-65" transform="translate(362.5 0)"/>
      <use xlink:href="#DejaVuSerif-77" transform="translate(421.679688 0)"/>
      <use xlink:href="#DejaVuSerif-61" transform="translate(507.275391 0)"/>
      <use xlink:href="#DejaVuSerif-6c" transform="translate(566.894531 0)"/>
      <use xlink:href="#DejaVuSerif-75" transform="translate(598.876953 0)"/>
      <use xlink:href="#DejaVuSerif-61" transform="translate(663.28125 0)"/>
      <use xlink:href="#DejaVuSerif-63" transform="translate(722.900391 0)"/>
      <use xlink:href="#DejaVuSerif-6a" transform="translate(778.90625 0)"/>
      <use xlink:href="#DejaVuSerif-69" transform="translate(809.912109 0)"/>
      <use xlink:href="#DejaVuSerif-20" transform="translate(841.894531 0)"/>
      <use xlink:href="#DejaVuSerif-66" transform="translate(873.681641 0)"/>
      <use xlink:href="#DejaVuSerif-75" transform="translate(910.693359 0)"/>
      <use xlink:href="#DejaVuSerif-6e" transform="translate(975.097656 0)"/>
      <use xlink:href="#DejaVuSerif-6b" transform="translate(1039.501953 0)"/>
      <use xlink:href="#DejaVuSerif-63" transform="translate(1100.097656 0)"/>
      <use xlink:href="#DejaVuSerif-6a" transform="translate(1156.103516 0)"/>
      <use xlink:href="#DejaVuSerif-69" transform="translate(1187.109375 0)"/>
      <use xlink:href="#DejaVuSerif-20" transform="translate(1219.091797 0)"/>
      <use xlink:href="#DejaVuSerif-63" transform="translate(1250.878906 0)"/>
      <use xlink:href="#DejaVuSerif-65" transform="translate(1306.884766 0)"/>
      <use xlink:href="#DejaVuSerif-6c" transform="translate(1366.064453 0)"/>
      <use xlink:href="#DejaVuSerif-75" transform="translate(1398.046875 0)"/>
     </g>
    </g>
   </g>
   <g id="matplotlib.axis_2">
    <g id="ytick_1">
     <g id="line2d_65">
      <path d="M 144 554.04 
L 1036.8 554.04 
" clip-path="url(#pcbe251ee3b)" style="fill: none; stroke: #b0b0b0; stroke-width: 0.8; stroke-linecap: square"/>
     </g>
     <g id="line2d_66">
      <defs>
       <path id="m80fcaf742b" d="M 0 0 
L -3.5 0 
" style="stroke: #000000; stroke-width: 0.8"/>
      </defs>
      <g>
       <use xlink:href="#m80fcaf742b" x="144" y="554.04" style="stroke: #000000; stroke-width: 0.8"/>
      </g>
     </g>
     <g id="text_8">
      <!-- 0.0 -->
      <g transform="translate(98.8325 563.158125) scale(0.24 -0.24)">
       <defs>
        <path id="DejaVuSerif-2e" d="M 603 325 
Q 603 500 722 622 
Q 841 744 1019 744 
Q 1191 744 1312 622 
Q 1434 500 1434 325 
Q 1434 153 1312 31 
Q 1191 -91 1019 -91 
Q 841 -91 722 29 
Q 603 150 603 325 
z
" transform="scale(0.015625)"/>
       </defs>
       <use xlink:href="#DejaVuSerif-30"/>
       <use xlink:href="#DejaVuSerif-2e" transform="translate(63.623047 0)"/>
       <use xlink:href="#DejaVuSerif-30" transform="translate(95.410156 0)"/>
      </g>
     </g>
    </g>
    <g id="ytick_2">
     <g id="line2d_67">
      <path d="M 144 446.856635 
L 1036.8 446.856635 
" clip-path="url(#pcbe251ee3b)" style="fill: none; stroke: #b0b0b0; stroke-width: 0.8; stroke-linecap: square"/>
     </g>
     <g id="line2d_68">
      <g>
       <use xlink:href="#m80fcaf742b" x="144" y="446.856635" style="stroke: #000000; stroke-width: 0.8"/>
      </g>
     </g>
     <g id="text_9">
      <!-- 0.1 -->
      <g transform="translate(98.8325 455.97476) scale(0.24 -0.24)">
       <use xlink:href="#DejaVuSerif-30"/>
       <use xlink:href="#DejaVuSerif-2e" transform="translate(63.623047 0)"/>
       <use xlink:href="#DejaVuSerif-31" transform="translate(95.410156 0)"/>
      </g>
     </g>
    </g>
    <g id="ytick_3">
     <g id="line2d_69">
      <path d="M 144 339.67327 
L 1036.8 339.67327 
" clip-path="url(#pcbe251ee3b)" style="fill: none; stroke: #b0b0b0; stroke-width: 0.8; stroke-linecap: square"/>
     </g>
     <g id="line2d_70">
      <g>
       <use xlink:href="#m80fcaf742b" x="144" y="339.67327" style="stroke: #000000; stroke-width: 0.8"/>
      </g>
     </g>
     <g id="text_10">
      <!-- 0.2 -->
      <g transform="translate(98.8325 348.791395) scale(0.24 -0.24)">
       <use xlink:href="#DejaVuSerif-30"/>
       <use xlink:href="#DejaVuSerif-2e" transform="translate(63.623047 0)"/>
       <use xlink:href="#DejaVuSerif-32" transform="translate(95.410156 0)"/>
      </g>
     </g>
    </g>
    <g id="ytick_4">
     <g id="line2d_71">
      <path d="M 144 232.489905 
L 1036.8 232.489905 
" clip-path="url(#pcbe251ee3b)" style="fill: none; stroke: #b0b0b0; stroke-width: 0.8; stroke-linecap: square"/>
     </g>
     <g id="line2d_72">
      <g>
       <use xlink:href="#m80fcaf742b" x="144" y="232.489905" style="stroke: #000000; stroke-width: 0.8"/>
      </g>
     </g>
     <g id="text_11">
      <!-- 0.3 -->
      <g transform="translate(98.8325 241.60803) scale(0.24 -0.24)">
       <use xlink:href="#DejaVuSerif-30"/>
       <use xlink:href="#DejaVuSerif-2e" transform="translate(63.623047 0)"/>
       <use xlink:href="#DejaVuSerif-33" transform="translate(95.410156 0)"/>
      </g>
     </g>
    </g>
    <g id="ytick_5">
     <g id="line2d_73">
      <path d="M 144 125.306541 
L 1036.8 125.306541 
" clip-path="url(#pcbe251ee3b)" style="fill: none; stroke: #b0b0b0; stroke-width: 0.8; stroke-linecap: square"/>
     </g>
     <g id="line2d_74">
      <g>
       <use xlink:href="#m80fcaf742b" x="144" y="125.306541" style="stroke: #000000; stroke-width: 0.8"/>
      </g>
     </g>
     <g id="text_12">
      <!-- 0.4 -->
      <g transform="translate(98.8325 134.424666) scale(0.24 -0.24)">
       <use xlink:href="#DejaVuSerif-30"/>
       <use xlink:href="#DejaVuSerif-2e" transform="translate(63.623047 0)"/>
       <use xlink:href="#DejaVuSerif-34" transform="translate(95.410156 0)"/>
      </g>
     </g>
    </g>
    <g id="text_13">
     <!-- Ułamek osiągniętych poziomów satysfakcji -->
     <g transform="translate(89.5 587.75625) rotate(-90) scale(0.24 -0.24)">
      <defs>
       <path id="DejaVuSerif-55" d="M 897 4331 
L 300 4331 
L 300 4666 
L 2125 4666 
L 2125 4331 
L 1528 4331 
L 1528 1919 
Q 1528 1025 1820 672 
Q 2113 319 2828 319 
Q 3544 319 3836 672 
Q 4128 1025 4128 1919 
L 4128 4331 
L 3531 4331 
L 3531 4666 
L 5106 4666 
L 5106 4331 
L 4513 4331 
L 4513 1856 
Q 4513 791 4103 350 
Q 3694 -91 2713 -91 
Q 1731 -91 1314 353 
Q 897 797 897 1856 
L 897 4331 
z
" transform="scale(0.015625)"/>
       <path id="DejaVuSerif-142" d="M 1338 331 
L 1888 331 
L 1888 0 
L 219 0 
L 219 331 
L 763 331 
L 763 2125 
L 331 1825 
L 141 2094 
L 763 2534 
L 763 4531 
L 219 4531 
L 219 4863 
L 1338 4863 
L 1338 2938 
L 1797 3244 
L 1984 2975 
L 1338 2534 
L 1338 331 
z
" transform="scale(0.015625)"/>
       <path id="DejaVuSerif-6d" d="M 3316 2675 
Q 3481 3041 3739 3227 
Q 3997 3413 4341 3413 
Q 4863 3413 5119 3089 
Q 5375 2766 5375 2113 
L 5375 331 
L 5894 331 
L 5894 0 
L 4300 0 
L 4300 331 
L 4800 331 
L 4800 2047 
Q 4800 2556 4650 2772 
Q 4500 2988 4153 2988 
Q 3769 2988 3567 2697 
Q 3366 2406 3366 1850 
L 3366 331 
L 3866 331 
L 3866 0 
L 2291 0 
L 2291 331 
L 2791 331 
L 2791 2069 
Q 2791 2566 2641 2777 
Q 2491 2988 2144 2988 
Q 1759 2988 1557 2697 
Q 1356 2406 1356 1850 
L 1356 331 
L 1856 331 
L 1856 0 
L 263 0 
L 263 331 
L 781 331 
L 781 2994 
L 231 2994 
L 231 3322 
L 1356 3322 
L 1356 2731 
Q 1516 3063 1762 3238 
Q 2009 3413 2322 3413 
Q 2709 3413 2968 3220 
Q 3228 3028 3316 2675 
z
" transform="scale(0.015625)"/>
       <path id="DejaVuSerif-6f" d="M 1925 219 
Q 2388 219 2623 584 
Q 2859 950 2859 1663 
Q 2859 2375 2623 2739 
Q 2388 3103 1925 3103 
Q 1463 3103 1227 2739 
Q 991 2375 991 1663 
Q 991 950 1228 584 
Q 1466 219 1925 219 
z
M 1925 -91 
Q 1200 -91 759 389 
Q 319 869 319 1663 
Q 319 2456 758 2934 
Q 1197 3413 1925 3413 
Q 2653 3413 3092 2934 
Q 3531 2456 3531 1663 
Q 3531 869 3092 389 
Q 2653 -91 1925 -91 
z
" transform="scale(0.015625)"/>
       <path id="DejaVuSerif-73" d="M 359 184 
L 359 959 
L 691 959 
Q 703 588 923 403 
Q 1144 219 1575 219 
Q 1963 219 2166 364 
Q 2369 509 2369 788 
Q 2369 1006 2220 1140 
Q 2072 1275 1594 1428 
L 1178 1569 
Q 750 1706 558 1912 
Q 366 2119 366 2438 
Q 366 2894 700 3153 
Q 1034 3413 1625 3413 
Q 1888 3413 2178 3344 
Q 2469 3275 2778 3144 
L 2778 2419 
L 2447 2419 
Q 2434 2741 2221 2922 
Q 2009 3103 1644 3103 
Q 1281 3103 1095 2975 
Q 909 2847 909 2591 
Q 909 2381 1050 2254 
Q 1191 2128 1613 1997 
L 2069 1856 
Q 2541 1709 2748 1489 
Q 2956 1269 2956 922 
Q 2956 450 2595 179 
Q 2234 -91 1600 -91 
Q 1278 -91 972 -22 
Q 666 47 359 184 
z
" transform="scale(0.015625)"/>
       <path id="DejaVuSerif-105" d="M 2545 0 
L 2838 0 
L 2835 -6 
Q 2563 -391 2563 -538 
Q 2563 -681 2668 -768 
Q 2773 -856 2948 -856 
Q 3032 -856 3122 -836 
Q 3213 -816 3307 -775 
L 3304 -1172 
Q 3192 -1200 3087 -1214 
Q 2982 -1228 2882 -1228 
Q 2529 -1228 2335 -1089 
Q 2142 -950 2142 -697 
Q 2142 -544 2235 -380 
Q 2329 -216 2545 0 
z
M 2547 1044 
L 2547 1747 
L 1806 1747 
Q 1378 1747 1168 1562 
Q 959 1378 959 997 
Q 959 650 1171 447 
Q 1384 244 1747 244 
Q 2106 244 2326 466 
Q 2547 688 2547 1044 
z
M 3122 2075 
L 3122 331 
L 3634 331 
L 3634 0 
L 2547 0 
L 2547 359 
Q 2356 128 2106 18 
Q 1856 -91 1522 -91 
Q 969 -91 644 203 
Q 319 497 319 997 
Q 319 1513 691 1797 
Q 1063 2081 1741 2081 
L 2547 2081 
L 2547 2309 
Q 2547 2688 2317 2895 
Q 2088 3103 1672 3103 
Q 1328 3103 1125 2947 
Q 922 2791 872 2484 
L 575 2484 
L 575 3156 
Q 875 3284 1158 3348 
Q 1441 3413 1709 3413 
Q 2400 3413 2761 3070 
Q 3122 2728 3122 2075 
z
" transform="scale(0.015625)"/>
       <path id="DejaVuSerif-67" d="M 3359 2988 
L 3359 72 
Q 3359 -644 2965 -1033 
Q 2572 -1422 1844 -1422 
Q 1516 -1422 1216 -1362 
Q 916 -1303 641 -1184 
L 641 -488 
L 941 -488 
Q 997 -813 1206 -963 
Q 1416 -1113 1806 -1113 
Q 2313 -1113 2548 -827 
Q 2784 -541 2784 72 
L 2784 519 
Q 2616 206 2355 57 
Q 2094 -91 1709 -91 
Q 1097 -91 708 395 
Q 319 881 319 1663 
Q 319 2444 706 2928 
Q 1094 3413 1709 3413 
Q 2094 3413 2355 3264 
Q 2616 3116 2784 2803 
L 2784 3322 
L 3909 3322 
L 3909 2988 
L 3359 2988 
z
M 2784 1825 
Q 2784 2422 2554 2737 
Q 2325 3053 1888 3053 
Q 1444 3053 1217 2703 
Q 991 2353 991 1663 
Q 991 975 1217 622 
Q 1444 269 1888 269 
Q 2325 269 2554 583 
Q 2784 897 2784 1497 
L 2784 1825 
z
" transform="scale(0.015625)"/>
       <path id="DejaVuSerif-119" d="M 2257 0 
L 2550 0 
L 2547 -6 
Q 2275 -391 2275 -538 
Q 2275 -681 2380 -768 
Q 2485 -856 2660 -856 
Q 2744 -856 2834 -836 
Q 2925 -816 3019 -775 
L 3016 -1172 
Q 2904 -1200 2799 -1214 
Q 2694 -1228 2594 -1228 
Q 2241 -1228 2047 -1089 
Q 1854 -950 1854 -697 
Q 1854 -544 1947 -380 
Q 2041 -216 2257 0 
z
M 3469 1600 
L 991 1600 
L 991 1575 
Q 991 903 1244 561 
Q 1497 219 1991 219 
Q 2369 219 2611 417 
Q 2853 616 2950 1006 
L 3413 1006 
Q 3275 459 2904 184 
Q 2534 -91 1931 -91 
Q 1203 -91 761 389 
Q 319 869 319 1663 
Q 319 2450 753 2931 
Q 1188 3413 1894 3413 
Q 2647 3413 3050 2948 
Q 3453 2484 3469 1600 
z
M 2791 1931 
Q 2772 2513 2545 2808 
Q 2319 3103 1894 3103 
Q 1497 3103 1269 2806 
Q 1041 2509 991 1931 
L 2791 1931 
z
" transform="scale(0.015625)"/>
       <path id="DejaVuSerif-74" d="M 691 2988 
L 184 2988 
L 184 3322 
L 691 3322 
L 691 4353 
L 1269 4353 
L 1269 3322 
L 2350 3322 
L 2350 2988 
L 1269 2988 
L 1269 878 
Q 1269 456 1350 337 
Q 1431 219 1650 219 
Q 1875 219 1978 351 
Q 2081 484 2088 781 
L 2522 781 
Q 2497 328 2275 118 
Q 2053 -91 1600 -91 
Q 1103 -91 897 129 
Q 691 350 691 878 
L 691 2988 
z
" transform="scale(0.015625)"/>
       <path id="DejaVuSerif-79" d="M 1381 -609 
L 1600 -56 
L 359 2988 
L -19 2988 
L -19 3322 
L 1509 3322 
L 1509 2988 
L 978 2988 
L 1913 703 
L 2847 2988 
L 2350 2988 
L 2350 3322 
L 3597 3322 
L 3597 2988 
L 3225 2988 
L 1703 -750 
Q 1547 -1138 1356 -1280 
Q 1166 -1422 819 -1422 
Q 672 -1422 517 -1397 
Q 363 -1372 206 -1325 
L 206 -691 
L 500 -691 
Q 519 -903 608 -995 
Q 697 -1088 884 -1088 
Q 1056 -1088 1161 -992 
Q 1266 -897 1381 -609 
z
" transform="scale(0.015625)"/>
       <path id="DejaVuSerif-68" d="M 263 0 
L 263 331 
L 781 331 
L 781 4531 
L 231 4531 
L 231 4863 
L 1356 4863 
L 1356 2731 
Q 1516 3069 1770 3241 
Q 2025 3413 2363 3413 
Q 2913 3413 3172 3097 
Q 3431 2781 3431 2113 
L 3431 331 
L 3944 331 
L 3944 0 
L 2356 0 
L 2356 331 
L 2853 331 
L 2853 1931 
Q 2853 2541 2704 2764 
Q 2556 2988 2175 2988 
Q 1775 2988 1565 2697 
Q 1356 2406 1356 1850 
L 1356 331 
L 1856 331 
L 1856 0 
L 263 0 
z
" transform="scale(0.015625)"/>
       <path id="DejaVuSerif-70" d="M 1313 1825 
L 1313 1497 
Q 1313 897 1542 583 
Q 1772 269 2209 269 
Q 2650 269 2876 622 
Q 3103 975 3103 1663 
Q 3103 2353 2876 2703 
Q 2650 3053 2209 3053 
Q 1772 3053 1542 2737 
Q 1313 2422 1313 1825 
z
M 738 2988 
L 184 2988 
L 184 3322 
L 1313 3322 
L 1313 2803 
Q 1481 3116 1742 3264 
Q 2003 3413 2388 3413 
Q 3000 3413 3387 2928 
Q 3775 2444 3775 1663 
Q 3775 881 3387 395 
Q 3000 -91 2388 -91 
Q 2003 -91 1742 57 
Q 1481 206 1313 519 
L 1313 -997 
L 1856 -997 
L 1856 -1331 
L 184 -1331 
L 184 -997 
L 738 -997 
L 738 2988 
z
" transform="scale(0.015625)"/>
       <path id="DejaVuSerif-f3" d="M 1925 219 
Q 2388 219 2623 584 
Q 2859 950 2859 1663 
Q 2859 2375 2623 2739 
Q 2388 3103 1925 3103 
Q 1463 3103 1227 2739 
Q 991 2375 991 1663 
Q 991 950 1228 584 
Q 1466 219 1925 219 
z
M 1925 -91 
Q 1200 -91 759 389 
Q 319 869 319 1663 
Q 319 2456 758 2934 
Q 1197 3413 1925 3413 
Q 2653 3413 3092 2934 
Q 3531 2456 3531 1663 
Q 3531 869 3092 389 
Q 2653 -91 1925 -91 
z
M 2362 5119 
L 2984 5119 
L 1922 3944 
L 1556 3944 
L 2362 5119 
z
" transform="scale(0.015625)"/>
      </defs>
      <use xlink:href="#DejaVuSerif-55"/>
      <use xlink:href="#DejaVuSerif-142" transform="translate(84.277344 0)"/>
      <use xlink:href="#DejaVuSerif-61" transform="translate(116.699219 0)"/>
      <use xlink:href="#DejaVuSerif-6d" transform="translate(176.318359 0)"/>
      <use xlink:href="#DejaVuSerif-65" transform="translate(271.142578 0)"/>
      <use xlink:href="#DejaVuSerif-6b" transform="translate(330.322266 0)"/>
      <use xlink:href="#DejaVuSerif-20" transform="translate(390.917969 0)"/>
      <use xlink:href="#DejaVuSerif-6f" transform="translate(422.705078 0)"/>
      <use xlink:href="#DejaVuSerif-73" transform="translate(482.910156 0)"/>
      <use xlink:href="#DejaVuSerif-69" transform="translate(534.228516 0)"/>
      <use xlink:href="#DejaVuSerif-105" transform="translate(566.210938 0)"/>
      <use xlink:href="#DejaVuSerif-67" transform="translate(625.830078 0)"/>
      <use xlink:href="#DejaVuSerif-6e" transform="translate(689.84375 0)"/>
      <use xlink:href="#DejaVuSerif-69" transform="translate(754.248047 0)"/>
      <use xlink:href="#DejaVuSerif-119" transform="translate(786.230469 0)"/>
      <use xlink:href="#DejaVuSerif-74" transform="translate(845.410156 0)"/>
      <use xlink:href="#DejaVuSerif-79" transform="translate(885.595703 0)"/>
      <use xlink:href="#DejaVuSerif-63" transform="translate(942.089844 0)"/>
      <use xlink:href="#DejaVuSerif-68" transform="translate(998.095703 0)"/>
      <use xlink:href="#DejaVuSerif-20" transform="translate(1062.5 0)"/>
      <use xlink:href="#DejaVuSerif-70" transform="translate(1094.287109 0)"/>
      <use xlink:href="#DejaVuSerif-6f" transform="translate(1158.300781 0)"/>
      <use xlink:href="#DejaVuSerif-7a" transform="translate(1218.505859 0)"/>
      <use xlink:href="#DejaVuSerif-69" transform="translate(1271.191406 0)"/>
      <use xlink:href="#DejaVuSerif-6f" transform="translate(1303.173828 0)"/>
      <use xlink:href="#DejaVuSerif-6d" transform="translate(1363.378906 0)"/>
      <use xlink:href="#DejaVuSerif-f3" transform="translate(1458.203125 0)"/>
      <use xlink:href="#DejaVuSerif-77" transform="translate(1518.408203 0)"/>
      <use xlink:href="#DejaVuSerif-20" transform="translate(1604.003906 0)"/>
      <use xlink:href="#DejaVuSerif-73" transform="translate(1635.791016 0)"/>
      <use xlink:href="#DejaVuSerif-61" transform="translate(1687.109375 0)"/>
      <use xlink:href="#DejaVuSerif-74" transform="translate(1746.728516 0)"/>
      <use xlink:href="#DejaVuSerif-79" transform="translate(1786.914062 0)"/>
      <use xlink:href="#DejaVuSerif-73" transform="translate(1843.408203 0)"/>
      <use xlink:href="#DejaVuSerif-66" transform="translate(1894.726562 0)"/>
      <use xlink:href="#DejaVuSerif-61" transform="translate(1931.738281 0)"/>
      <use xlink:href="#DejaVuSerif-6b" transform="translate(1991.357422 0)"/>
      <use xlink:href="#DejaVuSerif-63" transform="translate(2051.953125 0)"/>
      <use xlink:href="#DejaVuSerif-6a" transform="translate(2107.958984 0)"/>
      <use xlink:href="#DejaVuSerif-69" transform="translate(2138.964844 0)"/>
     </g>
    </g>
   </g>
   <g id="line2d_75">
    <path d="M 184.581818 554.04 
L 201.145826 554.04 
L 217.709833 554.04 
L 234.27384 554.04 
L 250.837848 554.04 
L 267.401855 554.04 
L 283.965863 554.04 
L 300.52987 554.04 
L 317.093878 554.04 
L 333.657885 554.04 
L 350.221892 554.04 
L 366.7859 554.04 
L 383.349907 554.04 
L 399.913915 554.04 
L 416.477922 554.04 
L 433.041929 554.04 
L 449.605937 554.04 
L 466.169944 554.04 
L 482.733952 554.04 
L 499.297959 554.04 
L 515.861967 530.888393 
L 532.425974 530.888393 
L 548.989981 530.888393 
L 565.553989 530.030926 
L 582.117996 530.030926 
L 598.682004 530.030926 
L 615.246011 530.030926 
L 631.810019 529.173459 
L 648.374026 509.45172 
L 664.938033 506.021853 
L 681.502041 506.021853 
L 698.066048 494.874783 
L 714.630056 488.015047 
L 731.194063 466.578374 
L 747.758071 446.856635 
L 764.322078 422.847561 
L 780.886085 387.691418 
L 797.450093 349.962873 
L 814.0141 316.521664 
L 830.578108 291.655123 
L 847.142115 266.788582 
L 863.706122 235.919773 
L 880.27013 188.759093 
L 896.834137 154.460416 
L 913.398145 114.159471 
L 929.962152 114.159471 
L 946.52616 114.159471 
L 963.090167 114.159471 
L 979.654174 114.159471 
L 996.218182 114.159471 
" clip-path="url(#pcbe251ee3b)" style="fill: none; stroke: #1f77b4; stroke-width: 3; stroke-linecap: square"/>
   </g>
   <g id="line2d_76">
    <path d="M 184.581818 554.04 
L 201.145826 554.04 
L 217.709833 554.04 
L 234.27384 554.04 
L 250.837848 554.04 
L 267.401855 554.04 
L 283.965863 554.04 
L 300.52987 554.04 
L 317.093878 554.04 
L 333.657885 554.04 
L 350.221892 554.04 
L 366.7859 554.04 
L 383.349907 554.04 
L 399.913915 554.04 
L 416.477922 554.04 
L 433.041929 554.04 
L 449.605937 554.04 
L 466.169944 554.04 
L 482.733952 554.04 
L 499.297959 554.04 
L 515.861967 530.888393 
L 532.425974 530.888393 
L 548.989981 530.888393 
L 565.553989 530.030926 
L 582.117996 530.030926 
L 598.682004 530.030926 
L 615.246011 530.030926 
L 631.810019 529.173459 
L 648.374026 509.45172 
L 664.938033 506.021853 
L 681.502041 506.021853 
L 698.066048 494.874783 
L 714.630056 451.14397 
L 731.194063 445.141701 
L 747.758071 443.426767 
L 764.322078 414.272892 
L 780.886085 355.965142 
L 797.450093 325.9538 
L 814.0141 305.374594 
L 830.578108 271.933384 
L 847.142115 231.632439 
L 863.706122 175.897089 
L 880.27013 109.014669 
L 896.834137 103.869868 
L 913.398145 103.869868 
L 929.962152 103.012401 
L 946.52616 100.44 
L 963.090167 100.44 
L 979.654174 100.44 
L 996.218182 100.44 
" clip-path="url(#pcbe251ee3b)" style="fill: none; stroke: #aec7e8; stroke-width: 3; stroke-linecap: square"/>
   </g>
   <g id="line2d_77">
    <path d="M 184.581818 554.04 
L 201.145826 554.04 
L 217.709833 554.04 
L 234.27384 554.04 
L 250.837848 554.04 
L 267.401855 554.04 
L 283.965863 554.04 
L 300.52987 554.04 
L 317.093878 554.04 
L 333.657885 554.04 
L 350.221892 554.04 
L 366.7859 554.04 
L 383.349907 554.04 
L 399.913915 554.04 
L 416.477922 554.04 
L 433.041929 554.04 
L 449.605937 554.04 
L 466.169944 554.04 
L 482.733952 554.04 
L 499.297959 554.04 
L 515.861967 530.888393 
L 532.425974 530.888393 
L 548.989981 530.888393 
L 565.553989 530.030926 
L 582.117996 530.030926 
L 598.682004 530.030926 
L 615.246011 530.030926 
L 631.810019 529.173459 
L 648.374026 509.45172 
L 664.938033 506.021853 
L 681.502041 506.021853 
L 698.066048 494.874783 
L 714.630056 488.015047 
L 731.194063 466.578374 
L 747.758071 446.856635 
L 764.322078 361.109943 
L 780.886085 355.965142 
L 797.450093 354.250208 
L 814.0141 272.790851 
L 830.578108 272.790851 
L 847.142115 229.060038 
L 863.706122 159.605217 
L 880.27013 111.58707 
L 896.834137 109.014669 
L 913.398145 108.157202 
L 929.962152 107.299735 
L 946.52616 107.299735 
L 963.090167 107.299735 
L 979.654174 107.299735 
L 996.218182 107.299735 
" clip-path="url(#pcbe251ee3b)" style="fill: none; stroke: #ff7f0e; stroke-width: 3; stroke-linecap: square"/>
   </g>
   <g id="line2d_78">
    <path d="M 184.581818 554.04 
L 201.145826 554.04 
L 217.709833 554.04 
L 234.27384 554.04 
L 250.837848 554.04 
L 267.401855 554.04 
L 283.965863 554.04 
L 300.52987 554.04 
L 317.093878 554.04 
L 333.657885 554.04 
L 350.221892 554.04 
L 366.7859 554.04 
L 383.349907 554.04 
L 399.913915 554.04 
L 416.477922 554.04 
L 433.041929 554.04 
L 449.605937 554.04 
L 466.169944 554.04 
L 482.733952 554.04 
L 499.297959 554.04 
L 515.861967 530.888393 
L 532.425974 530.888393 
L 548.989981 530.888393 
L 565.553989 530.030926 
L 582.117996 530.030926 
L 598.682004 530.030926 
L 615.246011 530.030926 
L 631.810019 529.173459 
L 648.374026 509.45172 
L 664.938033 506.021853 
L 681.502041 506.021853 
L 698.066048 494.874783 
L 714.630056 488.015047 
L 731.194063 466.578374 
L 747.758071 446.856635 
L 764.322078 422.847561 
L 780.886085 387.691418 
L 797.450093 313.091796 
L 814.0141 272.790851 
L 830.578108 272.790851 
L 847.142115 223.915236 
L 863.706122 160.462684 
L 880.27013 118.446805 
L 896.834137 111.58707 
L 913.398145 111.58707 
L 929.962152 111.58707 
L 946.52616 111.58707 
L 963.090167 111.58707 
L 979.654174 111.58707 
L 996.218182 111.58707 
" clip-path="url(#pcbe251ee3b)" style="fill: none; stroke: #ffbb78; stroke-width: 3; stroke-linecap: square"/>
   </g>
   <g id="line2d_79">
    <path d="M 184.581818 554.04 
L 201.145826 554.04 
L 217.709833 554.04 
L 234.27384 554.04 
L 250.837848 554.04 
L 267.401855 554.04 
L 283.965863 554.04 
L 300.52987 554.04 
L 317.093878 554.04 
L 333.657885 554.04 
L 350.221892 554.04 
L 366.7859 554.04 
L 383.349907 554.04 
L 399.913915 554.04 
L 416.477922 554.04 
L 433.041929 554.04 
L 449.605937 554.04 
L 466.169944 554.04 
L 482.733952 554.04 
L 499.297959 554.04 
L 515.861967 530.888393 
L 532.425974 530.888393 
L 548.989981 530.888393 
L 565.553989 530.030926 
L 582.117996 530.030926 
L 598.682004 530.030926 
L 615.246011 530.030926 
L 631.810019 529.173459 
L 648.374026 509.45172 
L 664.938033 506.021853 
L 681.502041 506.021853 
L 698.066048 494.874783 
L 714.630056 488.015047 
L 731.194063 466.578374 
L 747.758071 446.856635 
L 764.322078 422.847561 
L 780.886085 387.691418 
L 797.450093 349.962873 
L 814.0141 316.521664 
L 830.578108 291.655123 
L 847.142115 160.462684 
L 863.706122 160.462684 
L 880.27013 151.888015 
L 896.834137 115.016938 
L 913.398145 111.58707 
L 929.962152 111.58707 
L 946.52616 111.58707 
L 963.090167 111.58707 
L 979.654174 111.58707 
L 996.218182 111.58707 
" clip-path="url(#pcbe251ee3b)" style="fill: none; stroke: #2ca02c; stroke-width: 3; stroke-linecap: square"/>
   </g>
   <g id="line2d_80">
    <path d="M 184.581818 554.04 
L 201.145826 554.04 
L 217.709833 554.04 
L 234.27384 554.04 
L 250.837848 554.04 
L 267.401855 554.04 
L 283.965863 554.04 
L 300.52987 554.04 
L 317.093878 554.04 
L 333.657885 554.04 
L 350.221892 554.04 
L 366.7859 554.04 
L 383.349907 554.04 
L 399.913915 554.04 
L 416.477922 554.04 
L 433.041929 554.04 
L 449.605937 554.04 
L 466.169944 554.04 
L 482.733952 554.04 
L 499.297959 554.04 
L 515.861967 530.888393 
L 532.425974 530.888393 
L 548.989981 530.888393 
L 565.553989 530.030926 
L 582.117996 530.030926 
L 598.682004 530.030926 
L 615.246011 530.030926 
L 631.810019 529.173459 
L 648.374026 509.45172 
L 664.938033 506.021853 
L 681.502041 506.021853 
L 698.066048 494.874783 
L 714.630056 488.015047 
L 731.194063 466.578374 
L 747.758071 446.856635 
L 764.322078 422.847561 
L 780.886085 387.691418 
L 797.450093 349.962873 
L 814.0141 316.521664 
L 830.578108 291.655123 
L 847.142115 266.788582 
L 863.706122 235.919773 
L 880.27013 188.759093 
L 896.834137 117.589338 
L 913.398145 114.159471 
L 929.962152 114.159471 
L 946.52616 114.159471 
L 963.090167 114.159471 
L 979.654174 114.159471 
L 996.218182 114.159471 
" clip-path="url(#pcbe251ee3b)" style="fill: none; stroke: #98df8a; stroke-width: 3; stroke-linecap: square"/>
   </g>
   <g id="patch_3">
    <path d="M 144 576.72 
L 144 77.76 
" style="fill: none; stroke: #000000; stroke-width: 0.8; stroke-linejoin: miter; stroke-linecap: square"/>
   </g>
   <g id="patch_4">
    <path d="M 1036.8 576.72 
L 1036.8 77.76 
" style="fill: none; stroke: #000000; stroke-width: 0.8; stroke-linejoin: miter; stroke-linecap: square"/>
   </g>
   <g id="patch_5">
    <path d="M 144 576.72 
L 1036.8 576.72 
" style="fill: none; stroke: #000000; stroke-width: 0.8; stroke-linejoin: miter; stroke-linecap: square"/>
   </g>
   <g id="patch_6">
    <path d="M 144 77.76 
L 1036.8 77.76 
" style="fill: none; stroke: #000000; stroke-width: 0.8; stroke-linejoin: miter; stroke-linecap: square"/>
   </g>
   <g id="text_14">
    <!-- d=50, F=CEC12 -->
    <g transform="translate(468.7065 71.76) scale(0.288 -0.288)">
     <defs>
      <path id="DejaVuSerif-64" d="M 3359 331 
L 3909 331 
L 3909 0 
L 2784 0 
L 2784 519 
Q 2616 206 2355 57 
Q 2094 -91 1709 -91 
Q 1097 -91 708 395 
Q 319 881 319 1663 
Q 319 2444 706 2928 
Q 1094 3413 1709 3413 
Q 2094 3413 2355 3264 
Q 2616 3116 2784 2803 
L 2784 4531 
L 2241 4531 
L 2241 4863 
L 3359 4863 
L 3359 331 
z
M 2784 1497 
L 2784 1825 
Q 2784 2422 2554 2737 
Q 2325 3053 1888 3053 
Q 1444 3053 1217 2703 
Q 991 2353 991 1663 
Q 991 975 1217 622 
Q 1444 269 1888 269 
Q 2325 269 2554 583 
Q 2784 897 2784 1497 
z
" transform="scale(0.015625)"/>
      <path id="DejaVuSerif-3d" d="M 678 2894 
L 4684 2894 
L 4684 2394 
L 678 2394 
L 678 2894 
z
M 678 1619 
L 4684 1619 
L 4684 1119 
L 678 1119 
L 678 1619 
z
" transform="scale(0.015625)"/>
      <path id="DejaVuSerif-2c" d="M 231 -622 
Q 525 -406 662 -114 
Q 800 178 800 594 
L 800 709 
L 1416 709 
Q 1391 175 1164 -208 
Q 938 -591 481 -872 
L 231 -622 
z
" transform="scale(0.015625)"/>
      <path id="DejaVuSerif-46" d="M 353 0 
L 353 331 
L 947 331 
L 947 4331 
L 353 4331 
L 353 4666 
L 4172 4666 
L 4172 3628 
L 3788 3628 
L 3788 4281 
L 1581 4281 
L 1581 2719 
L 3175 2719 
L 3175 3303 
L 3559 3303 
L 3559 1753 
L 3175 1753 
L 3175 2338 
L 1581 2338 
L 1581 331 
L 2328 331 
L 2328 0 
L 353 0 
z
" transform="scale(0.015625)"/>
      <path id="DejaVuSerif-43" d="M 4513 1234 
Q 4306 581 3820 245 
Q 3334 -91 2591 -91 
Q 2134 -91 1743 65 
Q 1353 222 1050 525 
Q 700 875 529 1320 
Q 359 1766 359 2328 
Q 359 3416 987 4083 
Q 1616 4750 2644 4750 
Q 3025 4750 3456 4650 
Q 3888 4550 4384 4347 
L 4384 3272 
L 4031 3272 
Q 3916 3859 3567 4137 
Q 3219 4416 2591 4416 
Q 1844 4416 1459 3886 
Q 1075 3356 1075 2328 
Q 1075 1303 1459 773 
Q 1844 244 2591 244 
Q 3113 244 3450 492 
Q 3788 741 3938 1234 
L 4513 1234 
z
" transform="scale(0.015625)"/>
      <path id="DejaVuSerif-45" d="M 353 0 
L 353 331 
L 947 331 
L 947 4331 
L 353 4331 
L 353 4666 
L 4109 4666 
L 4109 3628 
L 3725 3628 
L 3725 4281 
L 1581 4281 
L 1581 2719 
L 3109 2719 
L 3109 3303 
L 3494 3303 
L 3494 1753 
L 3109 1753 
L 3109 2338 
L 1581 2338 
L 1581 384 
L 3775 384 
L 3775 1038 
L 4159 1038 
L 4159 0 
L 353 0 
z
" transform="scale(0.015625)"/>
     </defs>
     <use xlink:href="#DejaVuSerif-64"/>
     <use xlink:href="#DejaVuSerif-3d" transform="translate(64.013672 0)"/>
     <use xlink:href="#DejaVuSerif-35" transform="translate(147.802734 0)"/>
     <use xlink:href="#DejaVuSerif-30" transform="translate(211.425781 0)"/>
     <use xlink:href="#DejaVuSerif-2c" transform="translate(275.048828 0)"/>
     <use xlink:href="#DejaVuSerif-20" transform="translate(306.835938 0)"/>
     <use xlink:href="#DejaVuSerif-46" transform="translate(338.623047 0)"/>
     <use xlink:href="#DejaVuSerif-3d" transform="translate(408.007812 0)"/>
     <use xlink:href="#DejaVuSerif-43" transform="translate(491.796875 0)"/>
     <use xlink:href="#DejaVuSerif-45" transform="translate(568.310547 0)"/>
     <use xlink:href="#DejaVuSerif-43" transform="translate(641.308594 0)"/>
     <use xlink:href="#DejaVuSerif-31" transform="translate(717.822266 0)"/>
     <use xlink:href="#DejaVuSerif-32" transform="translate(781.445312 0)"/>
    </g>
   </g>
   <g id="legend_1">
    <g id="patch_7">
     <path d="M 160.8 308.325 
L 414.9225 308.325 
Q 419.7225 308.325 419.7225 303.525 
L 419.7225 94.56 
Q 419.7225 89.76 414.9225 89.76 
L 160.8 89.76 
Q 156 89.76 156 94.56 
L 156 303.525 
Q 156 308.325 160.8 308.325 
z
" style="fill: #ffffff; opacity: 0.8; stroke: #cccccc; stroke-linejoin: miter"/>
    </g>
    <g id="line2d_81">
     <path d="M 165.6 109.19625 
L 189.6 109.19625 
L 213.6 109.19625 
" style="fill: none; stroke: #1f77b4; stroke-width: 3; stroke-linecap: square"/>
    </g>
    <g id="text_15">
     <!-- CMA-ES -->
     <g transform="translate(232.8 117.59625) scale(0.24 -0.24)">
      <defs>
       <path id="DejaVuSerif-4d" d="M 353 0 
L 353 331 
L 947 331 
L 947 4331 
L 319 4331 
L 319 4666 
L 1678 4666 
L 3316 1344 
L 4953 4666 
L 6228 4666 
L 6228 4331 
L 5606 4331 
L 5606 331 
L 6203 331 
L 6203 0 
L 4378 0 
L 4378 331 
L 4972 331 
L 4972 3938 
L 3372 684 
L 2931 684 
L 1331 3938 
L 1331 331 
L 1925 331 
L 1925 0 
L 353 0 
z
" transform="scale(0.015625)"/>
       <path id="DejaVuSerif-41" d="M 1281 1691 
L 2994 1691 
L 2138 3909 
L 1281 1691 
z
M -38 0 
L -38 331 
L 372 331 
L 2034 4666 
L 2559 4666 
L 4225 331 
L 4684 331 
L 4684 0 
L 2988 0 
L 2988 331 
L 3506 331 
L 3116 1356 
L 1153 1356 
L 763 331 
L 1275 331 
L 1275 0 
L -38 0 
z
" transform="scale(0.015625)"/>
       <path id="DejaVuSerif-2d" d="M 281 1959 
L 1881 1959 
L 1881 1472 
L 281 1472 
L 281 1959 
z
" transform="scale(0.015625)"/>
       <path id="DejaVuSerif-53" d="M 594 225 
L 594 1288 
L 953 1284 
Q 969 753 1261 498 
Q 1553 244 2150 244 
Q 2706 244 2998 464 
Q 3291 684 3291 1106 
Q 3291 1444 3114 1625 
Q 2938 1806 2369 1978 
L 1753 2163 
Q 1084 2366 811 2669 
Q 538 2972 538 3500 
Q 538 4094 959 4422 
Q 1381 4750 2144 4750 
Q 2469 4750 2856 4679 
Q 3244 4609 3681 4475 
L 3681 3481 
L 3328 3481 
Q 3275 3975 2998 4195 
Q 2722 4416 2156 4416 
Q 1663 4416 1405 4214 
Q 1147 4013 1147 3628 
Q 1147 3294 1340 3103 
Q 1534 2913 2163 2725 
L 2741 2553 
Q 3375 2363 3645 2067 
Q 3916 1772 3916 1275 
Q 3916 597 3481 253 
Q 3047 -91 2188 -91 
Q 1803 -91 1404 -12 
Q 1006 66 594 225 
z
" transform="scale(0.015625)"/>
      </defs>
      <use xlink:href="#DejaVuSerif-43"/>
      <use xlink:href="#DejaVuSerif-4d" transform="translate(76.513672 0)"/>
      <use xlink:href="#DejaVuSerif-41" transform="translate(178.90625 0)"/>
      <use xlink:href="#DejaVuSerif-2d" transform="translate(251.123047 0)"/>
      <use xlink:href="#DejaVuSerif-45" transform="translate(284.912109 0)"/>
      <use xlink:href="#DejaVuSerif-53" transform="translate(357.910156 0)"/>
     </g>
    </g>
    <g id="line2d_82">
     <path d="M 165.6 144.42375 
L 189.6 144.42375 
L 213.6 144.42375 
" style="fill: none; stroke: #aec7e8; stroke-width: 3; stroke-linecap: square"/>
    </g>
    <g id="text_16">
     <!-- CMABFGS-0.5 -->
     <g transform="translate(232.8 152.82375) scale(0.24 -0.24)">
      <defs>
       <path id="DejaVuSerif-42" d="M 1581 331 
L 2516 331 
Q 3078 331 3337 575 
Q 3597 819 3597 1350 
Q 3597 1878 3339 2120 
Q 3081 2363 2516 2363 
L 1581 2363 
L 1581 331 
z
M 1581 2694 
L 2375 2694 
Q 2888 2694 3123 2891 
Q 3359 3088 3359 3513 
Q 3359 3941 3123 4136 
Q 2888 4331 2375 4331 
L 1581 4331 
L 1581 2694 
z
M 353 0 
L 353 331 
L 947 331 
L 947 4331 
L 353 4331 
L 353 4666 
L 2656 4666 
Q 3363 4666 3720 4377 
Q 4078 4088 4078 3513 
Q 4078 3097 3829 2850 
Q 3581 2603 3103 2547 
Q 3697 2472 4005 2167 
Q 4313 1863 4313 1350 
Q 4313 656 3875 328 
Q 3438 0 2509 0 
L 353 0 
z
" transform="scale(0.015625)"/>
       <path id="DejaVuSerif-47" d="M 4097 3272 
Q 3988 3856 3641 4136 
Q 3294 4416 2675 4416 
Q 1869 4416 1472 3897 
Q 1075 3378 1075 2328 
Q 1075 1300 1484 772 
Q 1894 244 2688 244 
Q 3041 244 3362 331 
Q 3684 419 3975 594 
L 3975 1797 
L 3097 1797 
L 3097 2131 
L 4609 2131 
L 4609 391 
Q 4194 150 3714 29 
Q 3234 -91 2688 -91 
Q 1631 -91 995 570 
Q 359 1231 359 2328 
Q 359 3434 996 4092 
Q 1634 4750 2713 4750 
Q 3113 4750 3539 4658 
Q 3966 4566 4447 4378 
L 4447 3272 
L 4097 3272 
z
" transform="scale(0.015625)"/>
      </defs>
      <use xlink:href="#DejaVuSerif-43"/>
      <use xlink:href="#DejaVuSerif-4d" transform="translate(76.513672 0)"/>
      <use xlink:href="#DejaVuSerif-41" transform="translate(178.90625 0)"/>
      <use xlink:href="#DejaVuSerif-42" transform="translate(251.123047 0)"/>
      <use xlink:href="#DejaVuSerif-46" transform="translate(324.609375 0)"/>
      <use xlink:href="#DejaVuSerif-47" transform="translate(393.994141 0)"/>
      <use xlink:href="#DejaVuSerif-53" transform="translate(473.876953 0)"/>
      <use xlink:href="#DejaVuSerif-2d" transform="translate(546.007812 0)"/>
      <use xlink:href="#DejaVuSerif-30" transform="translate(579.796875 0)"/>
      <use xlink:href="#DejaVuSerif-2e" transform="translate(643.419922 0)"/>
      <use xlink:href="#DejaVuSerif-35" transform="translate(675.207031 0)"/>
     </g>
    </g>
    <g id="line2d_83">
     <path d="M 165.6 179.65125 
L 189.6 179.65125 
L 213.6 179.65125 
" style="fill: none; stroke: #ff7f0e; stroke-width: 3; stroke-linecap: square"/>
    </g>
    <g id="text_17">
     <!-- CMABFGS-1.0 -->
     <g transform="translate(232.8 188.05125) scale(0.24 -0.24)">
      <use xlink:href="#DejaVuSerif-43"/>
      <use xlink:href="#DejaVuSerif-4d" transform="translate(76.513672 0)"/>
      <use xlink:href="#DejaVuSerif-41" transform="translate(178.90625 0)"/>
      <use xlink:href="#DejaVuSerif-42" transform="translate(251.123047 0)"/>
      <use xlink:href="#DejaVuSerif-46" transform="translate(324.609375 0)"/>
      <use xlink:href="#DejaVuSerif-47" transform="translate(393.994141 0)"/>
      <use xlink:href="#DejaVuSerif-53" transform="translate(473.876953 0)"/>
      <use xlink:href="#DejaVuSerif-2d" transform="translate(546.007812 0)"/>
      <use xlink:href="#DejaVuSerif-31" transform="translate(579.796875 0)"/>
      <use xlink:href="#DejaVuSerif-2e" transform="translate(643.419922 0)"/>
      <use xlink:href="#DejaVuSerif-30" transform="translate(675.207031 0)"/>
     </g>
    </g>
    <g id="line2d_84">
     <path d="M 165.6 214.87875 
L 189.6 214.87875 
L 213.6 214.87875 
" style="fill: none; stroke: #ffbb78; stroke-width: 3; stroke-linecap: square"/>
    </g>
    <g id="text_18">
     <!-- CMABFGS-2.0 -->
     <g transform="translate(232.8 223.27875) scale(0.24 -0.24)">
      <use xlink:href="#DejaVuSerif-43"/>
      <use xlink:href="#DejaVuSerif-4d" transform="translate(76.513672 0)"/>
      <use xlink:href="#DejaVuSerif-41" transform="translate(178.90625 0)"/>
      <use xlink:href="#DejaVuSerif-42" transform="translate(251.123047 0)"/>
      <use xlink:href="#DejaVuSerif-46" transform="translate(324.609375 0)"/>
      <use xlink:href="#DejaVuSerif-47" transform="translate(393.994141 0)"/>
      <use xlink:href="#DejaVuSerif-53" transform="translate(473.876953 0)"/>
      <use xlink:href="#DejaVuSerif-2d" transform="translate(546.007812 0)"/>
      <use xlink:href="#DejaVuSerif-32" transform="translate(579.796875 0)"/>
      <use xlink:href="#DejaVuSerif-2e" transform="translate(643.419922 0)"/>
      <use xlink:href="#DejaVuSerif-30" transform="translate(675.207031 0)"/>
     </g>
    </g>
    <g id="line2d_85">
     <path d="M 165.6 250.10625 
L 189.6 250.10625 
L 213.6 250.10625 
" style="fill: none; stroke: #2ca02c; stroke-width: 3; stroke-linecap: square"/>
    </g>
    <g id="text_19">
     <!-- CMABFGS-4.0 -->
     <g transform="translate(232.8 258.50625) scale(0.24 -0.24)">
      <use xlink:href="#DejaVuSerif-43"/>
      <use xlink:href="#DejaVuSerif-4d" transform="translate(76.513672 0)"/>
      <use xlink:href="#DejaVuSerif-41" transform="translate(178.90625 0)"/>
      <use xlink:href="#DejaVuSerif-42" transform="translate(251.123047 0)"/>
      <use xlink:href="#DejaVuSerif-46" transform="translate(324.609375 0)"/>
      <use xlink:href="#DejaVuSerif-47" transform="translate(393.994141 0)"/>
      <use xlink:href="#DejaVuSerif-53" transform="translate(473.876953 0)"/>
      <use xlink:href="#DejaVuSerif-2d" transform="translate(546.007812 0)"/>
      <use xlink:href="#DejaVuSerif-34" transform="translate(579.796875 0)"/>
      <use xlink:href="#DejaVuSerif-2e" transform="translate(643.419922 0)"/>
      <use xlink:href="#DejaVuSerif-30" transform="translate(675.207031 0)"/>
     </g>
    </g>
    <g id="line2d_86">
     <path d="M 165.6 285.33375 
L 189.6 285.33375 
L 213.6 285.33375 
" style="fill: none; stroke: #98df8a; stroke-width: 3; stroke-linecap: square"/>
    </g>
    <g id="text_20">
     <!-- CMABFGS-8.0 -->
     <g transform="translate(232.8 293.73375) scale(0.24 -0.24)">
      <defs>
       <path id="DejaVuSerif-38" d="M 2981 1275 
Q 2981 1775 2732 2051 
Q 2484 2328 2034 2328 
Q 1584 2328 1336 2051 
Q 1088 1775 1088 1275 
Q 1088 772 1336 495 
Q 1584 219 2034 219 
Q 2484 219 2732 495 
Q 2981 772 2981 1275 
z
M 2853 3541 
Q 2853 3966 2637 4203 
Q 2422 4441 2034 4441 
Q 1650 4441 1433 4203 
Q 1216 3966 1216 3541 
Q 1216 3113 1433 2875 
Q 1650 2638 2034 2638 
Q 2422 2638 2637 2875 
Q 2853 3113 2853 3541 
z
M 2516 2484 
Q 3047 2413 3344 2092 
Q 3641 1772 3641 1275 
Q 3641 619 3225 264 
Q 2809 -91 2034 -91 
Q 1263 -91 845 264 
Q 428 619 428 1275 
Q 428 1772 725 2092 
Q 1022 2413 1556 2484 
Q 1084 2569 832 2842 
Q 581 3116 581 3541 
Q 581 4103 968 4426 
Q 1356 4750 2034 4750 
Q 2713 4750 3100 4426 
Q 3488 4103 3488 3541 
Q 3488 3116 3236 2842 
Q 2984 2569 2516 2484 
z
" transform="scale(0.015625)"/>
      </defs>
      <use xlink:href="#DejaVuSerif-43"/>
      <use xlink:href="#DejaVuSerif-4d" transform="translate(76.513672 0)"/>
      <use xlink:href="#DejaVuSerif-41" transform="translate(178.90625 0)"/>
      <use xlink:href="#DejaVuSerif-42" transform="translate(251.123047 0)"/>
      <use xlink:href="#DejaVuSerif-46" transform="translate(324.609375 0)"/>
      <use xlink:href="#DejaVuSerif-47" transform="translate(393.994141 0)"/>
      <use xlink:href="#DejaVuSerif-53" transform="translate(473.876953 0)"/>
      <use xlink:href="#DejaVuSerif-2d" transform="translate(546.007812 0)"/>
      <use xlink:href="#DejaVuSerif-38" transform="translate(579.796875 0)"/>
      <use xlink:href="#DejaVuSerif-2e" transform="translate(643.419922 0)"/>
      <use xlink:href="#DejaVuSerif-30" transform="translate(675.207031 0)"/>
     </g>
    </g>
   </g>
  </g>
 </g>
 <defs>
  <clipPath id="pcbe251ee3b">
   <rect x="144" y="77.76" width="892.8" height="498.96"/>
  </clipPath>
 </defs>
</svg>
